<svg width="114" height="296" viewBox="0 0 114 296" fill="none" xmlns="http://www.w3.org/2000/svg">
<path d="M92.4938 41.4748C94.4123 38.4406 93.5079 34.4256 90.4737 32.5071L41.0289 1.24282C37.9947 -0.67572 33.9797 0.228699 32.0612 3.26288C30.1427 6.29706 31.0471 10.312 34.0813 12.2306L78.0322 40.021L50.2418 83.972C48.3233 87.0062 49.2277 91.0212 52.2619 92.9397C55.296 94.8582 59.311 93.9538 61.2295 90.9196L92.4938 41.4748ZM108 292.001L113.218 288.126C81.7459 245.747 57.7111 210.509 41.0965 181.099C24.4187 151.578 15.5583 128.508 13.8021 110.354C12.0929 92.687 17.0875 79.7763 28.6259 69.5359C40.6169 58.8939 60.1615 50.7095 88.4283 44.3421L86.9999 38.001L85.5715 31.6598C56.6703 38.1702 34.492 46.9483 19.9967 59.8129C5.04872 73.0793 -1.20646 90.2194 0.862521 111.606C2.88447 132.507 12.8302 157.495 29.7778 187.494C46.7886 217.605 71.1986 253.349 102.782 295.876L108 292.001Z" fill="black" fill-opacity="0.18"/>
</svg>
